# xmcd
#
# Track frame offsets: 
#        150
#        16188
#        33099
#        58274
#        72491
#        90233
#        109295
#        134658
#        150185
#        176933
#        189708
#        218896
#
# Disc length: 3057 seconds
#
# Revision: 1
# Processed by: cddbd v1.5.2PL0 Copyright (c) Steve Scherf et al.
# Submitted via: ExactAudioCopy v0.99pb4
#
DISCID=a60bef0c
DTITLE=Blues Lee - Home
DYEAR=2006
DGENRE=Blues
TTITLE0=Honey Please don't
TTITLE1=Liar
TTITLE2=For A Ride
TTITLE3=Hillbilly Joe
TTITLE4=Lazy Ways
TTITLE5=Peaceful Soul
TTITLE6=Destination Hell
TTITLE7=Nicole
TTITLE8=Seven Days
TTITLE9=Shovin'
TTITLE10=Home
TTITLE11=Blind Bold and Barefooted
EXTD=
EXTT0=
EXTT1=
EXTT2=
EXTT3=
EXTT4=
EXTT5=
EXTT6=
EXTT7=
EXTT8=
EXTT9=
EXTT10=
EXTT11=
PLAYORDER=
